HIERARCHY
ROOT Hips
{
    OFFSET 0.000000 0.000000 0.000000
    CHANNELS 6 Xposition Yposition Zposition Zrotation Xrotation Yrotation
    JOINT Spine
    {
        OFFSET -0.000000 8.339920 0.000000
        CHANNELS 3 Zrotation Xrotation Yrotation
        JOINT Spine1
        {
            OFFSET -0.000000 25.214485 0.000000
            CHANNELS 3 Zrotation Xrotation Yrotation
            JOINT Neck
            {
                OFFSET -0.000000 25.110935 2.282812
                CHANNELS 3 Zrotation Xrotation Yrotation
                JOINT Head
                {
                    OFFSET -0.000000 14.238888 -2.034127
                    CHANNELS 3 Zrotation Xrotation Yrotation
                    End Site
                    {
                        OFFSET -0.000000 25.426584 0.000000
                    }
                }
            }
            JOINT LeftShoulder
            {
                OFFSET 4.025024 23.158985 -0.185822
                CHANNELS 3 Zrotation Xrotation Yrotation
                JOINT LeftArm
                {
                    OFFSET 11.674057 0.000000 0.000000
                    CHANNELS 3 Zrotation Xrotation Yrotation
                    JOINT LeftForeArm
                    {
                        OFFSET 31.688633 0.000000 0.000000
                        CHANNELS 3 Zrotation Xrotation Yrotation
                        JOINT LeftHand
                        {
                            OFFSET 29.704493 0.000000 0.000000
                            CHANNELS 3 Zrotation Xrotation Yrotation
                            End Site
                            {
                                OFFSET 15.255952 0.000000 0.000000
                            }
                        }
                    }
                }
            }
            JOINT RightShoulder
            {
                OFFSET -4.099539 23.158985 -0.185822
                CHANNELS 3 Zrotation Xrotation Yrotation
                JOINT RightArm
                {
                    OFFSET -11.674057 0.000000 0.000000
                    CHANNELS 3 Zrotation Xrotation Yrotation
                    JOINT RightForeArm
                    {
                        OFFSET -31.688633 0.000000 0.000000
                        CHANNELS 3 Zrotation Xrotation Yrotation
                        JOINT RightHand
                        {
                            OFFSET -29.704493 0.000000 0.000000
                            CHANNELS 3 Zrotation Xrotation Yrotation
                            End Site
                            {
                                OFFSET -15.255952 0.000000 0.000000
                            }
                        }
                    }
                }
            }
        }
    }
    JOINT LeftUpLeg
    {
        OFFSET 10.170634 0.000000 0.000000
        CHANNELS 3 Zrotation Xrotation Yrotation
        JOINT LeftLeg
        {
            OFFSET -0.000000 -41.352962 0.000000
            CHANNELS 3 Zrotation Xrotation Yrotation
            JOINT LeftFoot
            {
                OFFSET -0.000000 -47.535004 0.000000
                CHANNELS 3 Zrotation Xrotation Yrotation
                JOINT LeftToeBase
                {
                    OFFSET -0.000000 -6.610912 15.255952
                    CHANNELS 3 Zrotation Xrotation Yrotation
                    End Site
                    {
                        OFFSET -0.000000 0.000000 4.068254
                    }
                }
            }
        }
    }
    JOINT RightUpLeg
    {
        OFFSET -10.170634 0.000000 0.000000
        CHANNELS 3 Zrotation Xrotation Yrotation
        JOINT RightLeg
        {
            OFFSET -0.000000 -41.352962 0.000000
            CHANNELS 3 Zrotation Xrotation Yrotation
            JOINT RightFoot
            {
                OFFSET -0.000000 -47.535004 0.000000
                CHANNELS 3 Zrotation Xrotation Yrotation
                JOINT RightToeBase
                {
                    OFFSET -0.000000 -6.610912 15.255952
                    CHANNELS 3 Zrotation Xrotation Yrotation
                    End Site
                    {
                        OFFSET -0.000000 0.000000 4.068254
                    }
                }
            }
        }
    }
}
MOTION
Frames:    11
Frame Time:    0.008333
31.342966    94.568672    45.410534    -0.406127    -1.173909    89.864258    -0.619161    -5.113064    -1.213434    5.094311    -0.151929    -1.179029    -10.571627    33.018124    1.421138    10.507559    -9.923045    2.100504    12.157851    1.718202    0.516354    -16.443951    -3.330445    4.190145    1.955114    -6.874597    2.244519    -12.451326    -7.011384    0.912040    -23.188627    2.213822    -7.896498    15.644502    -0.158941    6.678230    -0.898896    -1.790823    -2.391168    -4.783020    -1.960654    3.617560    0.947342    6.762177    -3.114012    -0.869438    -4.535524    4.300082    2.119374    -3.075721    11.099458    0.000000    0.000000    0.000000    3.706513    5.949608    4.243402    -2.422373    -2.238548    -3.249473    -3.159915    -3.425443    -12.193420    0.000000    0.000000    0.000000    
31.330246    94.573036    45.386303    -0.434088    -1.204777    89.815598    -0.595359    -5.091913    -1.207920    5.088009    -0.213374    -1.172005    -10.720378    33.062706    1.486330    10.546473    -10.015429    2.155073    12.147042    1.925622    0.604740    -16.486559    -3.439147    4.100144    1.979643    -6.848368    2.284422    -12.507714    -6.990872    0.949663    -23.175133    2.269096    -7.910726    15.573160    -0.079558    6.814978    -0.911667    -1.935045    -2.456507    -4.620972    -2.090192    3.362217    0.958726    6.761806    -3.095260    -0.867262    -4.583055    4.280575    2.125574    -3.060243    11.147124    0.000000    0.000000    0.000000    3.712953    5.896477    4.276361    -2.411762    -2.213268    -3.221730    -3.137383    -3.407541    -12.207142    0.000000    0.000000    0.000000    
31.319475    94.572327    45.365993    -0.449917    -1.238362    89.768661    -0.567907    -5.072364    -1.215391    5.081184    -0.241376    -1.179557    -10.872610    33.010712    1.513517    10.552315    -9.986857    2.162735    12.070598    1.794793    0.564691    -16.412630    -3.201174    4.328342    1.960451    -6.885412    2.249465    -12.600358    -7.037064    1.035098    -23.233318    2.259198    -7.897328    15.596277    -0.222368    6.865853    -0.829270    -1.862146    -2.525260    -4.813936    -2.033264    3.637573    0.976140    6.770662    -3.063129    -0.867114    -4.624592    4.225040    2.125386    -3.062752    11.213823    0.000000    0.000000    0.000000    3.730415    5.878639    4.296298    -2.412614    -2.233594    -3.251118    -3.131690    -3.373719    -12.158121    0.000000    0.000000    0.000000    
31.304413    94.574669    45.341988    -0.475146    -1.263087    89.711151    -0.537999    -5.078132    -1.219918    5.050512    -0.221587    -1.186329    -11.049211    32.940670    1.543389    10.624563    -9.980335    2.187877    12.050124    1.787404    0.621425    -16.454428    -3.025704    4.396570    2.024688    -6.991358    2.226226    -12.510438    -7.153550    1.132095    -23.270725    2.227771    -7.882595    15.618310    -0.297226    6.902719    -0.852074    -1.890815    -2.489965    -4.805935    -2.059065    3.569703    0.975486    6.772014    -3.052248    -0.859930    -4.677780    4.236422    2.133330    -3.037710    11.267381    0.000000    0.000000    0.000000    3.743222    5.833153    4.285835    -2.428163    -2.223546    -3.272985    -3.100436    -3.358022    -12.066319    0.000000    0.000000    0.000000    
31.292545    94.575912    45.321194    -0.487589    -1.296646    89.664238    -0.509629    -5.063066    -1.233999    5.038954    -0.213355    -1.202114    -11.162828    32.716221    1.576688    10.585976    -9.732654    2.199132    11.968783    1.627575    0.720355    -16.332008    -2.870296    4.481977    1.946222    -6.912031    2.247489    -12.711040    -7.078704    1.164845    -23.315531    2.199213    -7.861043    15.632363    -0.323788    6.943460    -0.857483    -1.793838    -2.525934    -4.619629    -1.957540    3.590064    0.996155    6.788253    -3.004453    -0.868993    -4.726602    4.153535    2.134938    -3.025305    11.352996    0.000000    0.000000    0.000000    3.758171    5.807811    4.307181    -2.422322    -2.227973    -3.268212    -3.070510    -3.327508    -12.054108    0.000000    0.000000    0.000000    
31.276802    94.578217    45.297749    -0.502289    -1.316071    89.603691    -0.478889    -5.037603    -1.248863    4.999707    -0.230224    -1.217804    -11.319075    32.844986    1.582934    10.656767    -9.991114    2.203769    11.945683    1.648318    0.840091    -16.311201    -2.857847    4.492630    1.946637    -6.906705    2.258779    -12.884825    -7.088203    1.279482    -23.323189    2.235626    -7.808746    15.615747    -0.442906    6.995643    -0.733617    -1.906204    -2.578936    -5.095382    -2.089030    3.738219    0.989733    6.794377    -2.961441    -0.856312    -4.765693    4.162001    2.146725    -3.003963    11.366539    0.000000    0.000000    0.000000    3.757168    5.775024    4.304488    -2.419951    -2.228878    -3.270759    -3.058175    -3.298996    -11.992951    0.000000    0.000000    0.000000    
31.263351    94.579727    45.274906    -0.512180    -1.331511    89.539284    -0.445261    -5.007031    -1.262593    4.954740    -0.258509    -1.231930    -11.440586    32.844139    1.617665    10.628162    -10.014883    2.215494    11.896045    1.931820    0.927790    -16.264534    -3.142526    4.472700    1.935680    -6.903161    2.245009    -13.081999    -7.109296    1.480411    -23.311733    2.244327    -7.750578    15.561954    -0.459040    7.042790    -0.765278    -1.756184    -2.627137    -4.787066    -1.933306    3.818546    0.984342    6.812139    -2.907489    -0.851795    -4.816261    4.155950    2.125377    -2.984013    11.374171    0.000000    0.000000    0.000000    3.748983    5.747549    4.331703    -2.415861    -2.221694    -3.237361    -3.011290    -3.284357    -11.994914    0.000000    0.000000    0.000000    
31.246010    94.583809    45.249592    -0.527853    -1.347288    89.468513    -0.416513    -4.972678    -1.266866    4.928865    -0.290596    -1.236297    -11.599343    32.779842    1.661923    10.639735    -9.957067    2.240348    11.925478    1.850488    1.013742    -16.309145    -3.179042    4.529301    1.931194    -6.829343    2.258874    -13.289083    -7.056970    1.641386    -23.384863    2.219133    -7.698780    15.574633    -0.296460    7.060699    -0.777090    -1.697504    -2.659684    -4.557547    -1.870260    3.887935    0.977069    6.810295    -2.790334    -0.854042    -4.839076    4.035526    2.107852    -2.976072    11.444141    0.000000    0.000000    0.000000    3.734127    5.711040    4.381683    -2.398446    -2.210611    -3.243295    -3.037447    -3.265610    -11.959895    0.000000    0.000000    0.000000    
31.229263    94.587242    45.229988    -0.535971    -1.367339    89.392525    -0.344461    -4.954665    -1.267518    4.816312    -0.273798    -1.241152    -11.739211    32.750881    1.685316    10.725752    -9.999881    2.268645    11.948067    1.831512    1.101097    -16.274460    -3.236202    4.587615    1.893502    -6.812971    2.248668    -13.438571    -7.057030    1.771148    -23.404055    2.197914    -7.649604    15.614814    -0.276546    7.088366    -0.835497    -1.744479    -2.592193    -4.635837    -1.909241    3.604263    0.980442    6.825273    -2.745822    -0.854224    -4.883802    4.079594    2.084990    -2.952782    11.424534    0.000000    0.000000    0.000000    3.728359    5.680601    4.426135    -2.382184    -2.199198    -3.219249    -3.004086    -3.252689    -11.964396    0.000000    0.000000    0.000000    
31.210655    94.593216    45.209690    -0.548926    -1.383678    89.320007    -0.305717    -4.929308    -1.265266    4.769845    -0.283576    -1.240323    -11.916883    32.702385    1.706022    10.818893    -9.964790    2.284751    11.928042    1.831616    1.168091    -16.247721    -3.252362    4.642328    1.871884    -6.793211    2.252029    -13.629287    -7.055178    1.900061    -23.470528    2.200895    -7.627246    15.636702    -0.189782    7.149500    -0.809506    -1.726966    -2.686364    -4.701849    -1.898091    3.706797    0.981259    6.826080    -2.689659    -0.858621    -4.913567    4.043789    2.055106    -2.934029    11.476494    0.000000    0.000000    0.000000    3.729364    5.642796    4.453913    -2.390514    -2.182556    -3.213452    -2.992010    -3.227697    -11.912936    0.000000    0.000000    0.000000    
31.202137    94.594345    45.190861    -0.540017    -1.389777    89.283516    -0.277424    -4.907461    -1.291136    4.709554    -0.251360    -1.268924    -12.063553    32.561420    1.682842    10.884847    -9.803653    2.255095    11.918884    1.816800    1.271698    -16.209887    -3.276382    4.682548    1.835528    -6.771662    2.276397    -13.861300    -7.051240    2.016523    -23.523880    2.172906    -7.576638    15.665081    -0.197228    7.179357    -0.800805    -1.630746    -2.730695    -4.698290    -1.803430    3.744121    0.976352    6.852896    -2.698466    -0.861182    -4.943825    4.078623    2.025361    -2.944093    11.482750    0.000000    0.000000    0.000000    3.719596    5.649767    4.469982    -2.389369    -2.198070    -3.205877    -2.986640    -3.209625    -11.904133    0.000000    0.000000    0.000000    
